PathFileType	4	(X/Y/Z)	0_1_22_p0_0-274.trc
DataRate	CameraRate	NumFrames	NumMarkers	Units	OrigDataRate	OrigDataStartFrame	OrigNumFrames
60	60	7	27	m	60	68	274
Frame#	Time	RHip			RKnee			RAnkle			RBigToe			RSmallToe			RHeel			LHip			LKnee			LAnkle			LBigToe			LSmallToe			LHeel			Neck			Head			Nose			RShoulder			RElbow			RWrist			RThumb			RIndex			RPinky			LShoulder			LElbow			LWrist			LThumb			LIndex			LPinky		
		X1	Y1	Z1	X2	Y2	Z2	X3	Y3	Z3	X4	Y4	Z4	X5	Y5	Z5	X6	Y6	Z6	X7	Y7	Z7	X8	Y8	Z8	X9	Y9	Z9	X10	Y10	Z10	X11	Y11	Z11	X12	Y12	Z12	X13	Y13	Z13	X14	Y14	Z14	X15	Y15	Z15	X16	Y16	Z16	X17	Y17	Z17	X18	Y18	Z18	X19	Y19	Z19	X20	Y20	Z20	X21	Y21	Z21	X22	Y22	Z22	X23	Y23	Z23	X24	Y24	Z24	X25	Y25	Z25	X26	Y26	Z26	X27	Y27	Z27
69	1.15	0.12471652551551404	0.2104319271046709	0.04628132371046758	0.13920409612347734	0.2561408517870512	-0.4154880800083655	0.15484660925728283	0.20479437748370008	-0.7834984653657074	0.17114227268372817	0.0613468272812364	-0.7948830510873632	0.09927907562745551	0.0850644221733996	-0.794163749515953	0.16361622952820398	0.22653936183372866	-0.8276191277106612	0.32842172876778736	0.21128229541189525	0.05707920073508443	0.3387094069847957	0.24117653021365631	-0.4073666277123732	0.3530841011457365	0.2400272982655688	-0.830379056755608	0.32321232129048694	0.05951480501746852	-0.7890112937310676	0.3756883536960987	0.12275793322537565	-0.8178521396510993	0.34485686671505045	0.28624426526485586	-0.883783930500791	0.20957345871281402	0.3165394279219787	0.5069885604545	0.20389662287872648	0.17602764729035003	0.7799465353188992	0.1971264868020016	0.15386225505379272	0.6127627252030634	0.07679086490631894	0.3314655897836044	0.4684559606291344	0.004663471340283349	0.17619905582824735	0.26225347240585845	0.06316825115428311	0.09040585038193288	0.47778612478294835	0.1407465102072344	0.08586942946356083	0.5904127937653058	0.13258602213873405	0.06568469652475106	0.6118120634360366	0.08364447093994605	0.057943589986371974	0.5552427521761526	0.3553715647590216	0.2673776448430609	0.49305185727955503	0.45278319176241283	0.17201825794632092	0.3068029582935662	0.39090422375999084	0.133800518563195	0.5265853491326429	0.33950864593103325	0.1880206717290383	0.5925117445251683	0.32459155533275524	0.13261171494448706	0.6301091205294632	0.34559188390322815	0.09146315235156727	0.6214539669640373
70	1.1666666666666667	0.12560528642806695	0.2150374992621255	0.0424130081761028	0.13935291800045477	0.2558821407888479	-0.41600365566485653	0.1548595395523879	0.20481118796111003	-0.7834706446591034	0.1714234212836276	0.06058114147660404	-0.79428152177288	0.09927136004937706	0.08502518024563271	-0.7940527869323146	0.16360758152011604	0.2265462567326016	-0.8276378140282569	0.3283888112320284	0.21133363440654687	0.0567552430661679	0.3395341349344505	0.2406001952836977	-0.4069197656951819	0.35460972811058505	0.23759501484783319	-0.826931422438868	0.3241062076921145	0.061515294942739024	-0.7904808148852601	0.3757282761602729	0.12272801333393923	-0.8178674210817628	0.3448770410894703	0.2862261352411766	-0.8837464900073999	0.21103331857200272	0.3131394780995762	0.5078706396779513	0.20469605609100766	0.1756476505365004	0.7782834625892577	0.19748713462007372	0.15344098046438023	0.6115134974940228	0.0776053495521784	0.33175744568657695	0.4674261735422235	0.0019297134345068396	0.1757735620052454	0.2611776822321813	0.06330788203307751	0.09046088855703228	0.4728624741413589	0.14069464893529088	0.08608134871712454	0.5842577802187301	0.13377742314782443	0.06936268277342082	0.6027088066213618	0.08396700934576291	0.055761370735317894	0.5501258012653931	0.3565888041161351	0.2707103315467958	0.49179857492389656	0.45366566501958355	0.17265553230449007	0.30629737680267355	0.3935579309827057	0.13646644916805273	0.5223696448727632	0.34552761558683937	0.20112957370704984	0.5889913688473113	0.33315022667668936	0.13931134376495696	0.6241044547562585	0.35635834427103485	0.10472758610425756	0.6155319443676809
71	1.1833333333333331	0.1261409805703108	0.21844787384958783	0.039308903831800364	0.13946554931109276	0.2557219431478881	-0.41618697062590737	0.15488095671668559	0.2047833267278737	-0.783570526636862	0.17176204861392502	0.05820243622849901	-0.7916425845105268	0.09931057943607072	0.08498835201537588	-0.7942269942652626	0.16403961148248966	0.2263034108627804	-0.8274552251039056	0.32813939113694224	0.2125426727783371	0.05667409321343678	0.33965227917910634	0.23917840618703043	-0.4066942332585285	0.3558505290791757	0.2366286923771595	-0.8254460756039121	0.3245761052634813	0.0625415729032986	-0.7912194874619567	0.3758512763574015	0.1226116017734257	-0.8183367436604907	0.34489885007869764	0.2861941989938373	-0.883733102623488	0.2127060588522303	0.31026792125151403	0.5079489774422304	0.20495390075345846	0.1751054774093636	0.7771614316780031	0.19757090405369876	0.15292107809280175	0.6105383653856293	0.07805303689853943	0.33229887014988296	0.466561531358676	-0.0013533360103270703	0.17577807972643383	0.26022137091114067	0.06399930923856705	0.09175857911874856	0.46648770646528254	0.1394266688806198	0.08532748209168044	0.5747812194429481	0.13454301583463682	0.07139913716847918	0.5899838484164105	0.08459054851482917	0.0497497457827107	0.5426921099674678	0.3563244391600267	0.27184469066166217	0.49018216342402177	0.45625400273147154	0.17622539217186584	0.3042636690501463	0.39763561222627253	0.13942224806351164	0.5167189302880425	0.3505144767729893	0.204187829001757	0.5841672191976091	0.3432840336962562	0.13865415841285855	0.6175494670357118	0.3671130532105912	0.11095984708029519	0.6065172667532935
72	1.2	0.12605408566912746	0.21980274414729317	0.03797644082790161	0.13941936288412837	0.25573813467139156	-0.4158102133570766	0.1548926930630254	0.2047820487038294	-0.7835169262293957	0.17246644716970158	0.056894825026480814	-0.7901164742496383	0.09937840313335997	0.0849597436596387	-0.7947196761083846	0.16514004383279024	0.2256472143875042	-0.8269498823232243	0.32750482487135785	0.2156879901977226	0.05603869515516931	0.3395520483366396	0.23695909685615418	-0.40589143590837706	0.356380015834284	0.23670523554766124	-0.8248392125225276	0.3241170805663817	0.061450369881045436	-0.7903734781134067	0.376084309050418	0.12242182680762267	-0.8193951472705456	0.3449165084497451	0.28611507174596373	-0.8837247185096867	0.2133436070012286	0.3103826194512004	0.5072986282919765	0.20468407727304527	0.17308284337544574	0.776702129297059	0.1979079481717307	0.15228930465556823	0.6101426106441713	0.07782922654228074	0.33318716510116564	0.4658880913408535	-0.003962297496273987	0.1775389581046247	0.2592560689891578	0.06488617229719851	0.09345068564144655	0.45827453511356847	0.1361122389642887	0.08138687904987443	0.5634144528185643	0.1344660494585576	0.06975129288377697	0.5761306029342735	0.08628931033852605	0.03961522902290954	0.5313913941432935	0.35432209104748524	0.2709915126311637	0.4881915052166742	0.4614403081132936	0.18362313196238633	0.30027775411791413	0.40254062895395204	0.14218691601198122	0.5079607997901469	0.3546117255622773	0.195954661760889	0.5763526140157966	0.3520903696733003	0.131018689124432	0.611213416216951	0.37584076174783093	0.1101753768347726	0.5924157487674656
73	1.2166666666666666	0.12575687974878408	0.21986162653034874	0.03781905403777849	0.13902553356688438	0.25606337715104627	-0.41574163499148575	0.15481912621613436	0.20485220455130693	-0.7830839459103859	0.17335302449038104	0.05759753275265831	-0.7910802779024874	0.09946294148205452	0.08492285202821984	-0.7954097152092602	0.1665758719519683	0.22476744131273876	-0.8262710458096016	0.32663384387452904	0.21990570756522182	0.054374605940070084	0.3396779627884633	0.234446185115165	-0.40474685048967435	0.3564634920019327	0.2371542629483297	-0.824190382946935	0.3232308309443793	0.05940151895455278	-0.788836984997008	0.3762974694277697	0.12226339595098695	-0.8204352998073676	0.3449262146996186	0.28601065111043217	-0.8837080218582253	0.21319677193508982	0.31227839551548364	0.5066088333626675	0.20415055542674718	0.16843343637556316	0.7767861009196793	0.1987098986431208	0.15162319047631384	0.610173194445717	0.07659053963881812	0.33234734818451395	0.465524593677925	-0.005076233101301	0.1794029791305477	0.25827164788399004	0.06542991467587646	0.09349964003735524	0.4473349055317188	0.13212817830222295	0.0736017298404245	0.551805010405312	0.13346189513386597	0.06442291441325375	0.5626227626994532	0.08988467079031995	0.028351923307721752	0.5158600554565902	0.35257784904937445	0.26958208278089546	0.4862523424669577	0.4685540509730927	0.19444699324370218	0.2944428949813471	0.4061706976306967	0.1414093661083166	0.494978456961118	0.357489709249748	0.17531431202346023	0.5654883551066235	0.3572841327794344	0.11602728555365698	0.603763239776848	0.38212560543481694	0.1049628896611615	0.5740229253280693
74	1.2333333333333334	0.125507747515107	0.21967172733671464	0.037541561573797955	0.13802649863633992	0.25702397212449335	-0.4169203761146194	0.15462853589600503	0.20498914977129226	-0.7823772793564284	0.17418755869534103	0.05927293078723518	-0.7933143320925462	0.09949400827850052	0.0849234571147376	-0.7957652729826619	0.16765290658177914	0.22408919841540542	-0.8257448635679874	0.3259813540306491	0.22290068129348123	0.05230926208494226	0.33990895495433276	0.23206926330898026	-0.40391908931610954	0.3564636666643463	0.23735033161058833	-0.8239094237138664	0.32263181046436396	0.05811345057601992	-0.7880307544728418	0.3762902024261258	0.12225701194036327	-0.8205282391851643	0.34492979361056075	0.2859478745633186	-0.8836936236885329	0.2135070994613958	0.31203542376714555	0.5061722714623561	0.20355970643713833	0.16218880095268615	0.7772653293719606	0.1994521198009143	0.15118256116118206	0.6103482775152521	0.07404269488453072	0.3259991713094653	0.46613029982774784	-0.004902335925426982	0.1811192672357294	0.256398718968701	0.06628295500689582	0.0930021425623208	0.43209853359390465	0.13212006719619693	0.06747025591312127	0.5389707793129771	0.13204798320270933	0.05746977200692403	0.5493578302217508	0.09535184392481258	0.021872329153187077	0.49768230312785244	0.3532008828409973	0.2697711207933981	0.48470943375051445	0.47586199179734734	0.20771426934444295	0.28707144682563907	0.4067066242015323	0.1340450506936573	0.47899846981554123	0.35934751059056635	0.14495122039549543	0.5538027289917155	0.35910457999448936	0.09588358500546117	0.592325621856925	0.38591473174990765	0.09728874073763022	0.5556050324858304
75	1.25	0.12529694792064636	0.21974181479300953	0.03689287913677006	0.13622090101790602	0.2589443307324037	-0.4189084136796991	0.15444844058323692	0.2050868347367515	-0.782003784238494	0.17478377875194742	0.06075205797457183	-0.7951826295446625	0.09941297045458813	0.08502837982533995	-0.7954382739291905	0.1680827335915016	0.2237999956680945	-0.8255014599906076	0.3258617448214632	0.22319548627171254	0.05095112915529448	0.33981792680221357	0.2300867665622578	-0.40326021151077573	0.3561495235903782	0.2375780231136915	-0.8248076334914644	0.3223988704822244	0.057925233296034946	-0.7885020694817557	0.3760615693228669	0.12237060537876847	-0.8196346706686835	0.34492715064727003	0.2859603772728058	-0.8836950616290338	0.2144499513166627	0.30869004136287037	0.5054426877964069	0.20313478674940064	0.15703906777378931	0.7779545452133417	0.1997754342830495	0.15078037931117372	0.6104320319259282	0.0698597509306434	0.312417506003252	0.4683730495045665	-0.004613348649243411	0.18585215474924344	0.25204411753849276	0.06904615454031642	0.09583587252286999	0.41181849411275084	0.13824333757419863	0.06754400655616626	0.5223505994275915	0.13114100666737263	0.051414925076056356	0.5351547119716696	0.10234542656259604	0.023312447195050864	0.478819838873184	0.356317493696127	0.27279379851442515	0.48345286419234695	0.48218297172650987	0.2219643889401855	0.27882136576764	0.40495007417102513	0.12233238086107356	0.462663914318636	0.36228990015638374	0.11329140571146118	0.54355553594724	0.36095690084627785	0.0772408283185674	0.5749712734612695	0.38780321241914395	0.08823946303933787	0.539914849388331
